# xmcd CD database file
#
# Track frame offsets:
#	150
#	12771
#	28479
#	42269
#	56166
#	67562
#	81283
#	93552
#	105581
#	119288
#	138743
#	155757
#	169403
#	182316
#	200095
#	214568
#	226636
#	238234
#	251982
#	264914
#
# Disc length: 3718 seconds
#
# Revision: 1
# Processed by: cddbd v1.5.2PL0 Copyright (c) Steve Scherf et al.
# Submitted via: CDex 1.51
#
DISCID=190e8414
DTITLE=Various Artist - Legends of Jazz Vol 1
DYEAR=2006
DGENRE=Jazz
TTITLE0=Milestone - Miles Davis and His All Stars
TTITLE1=Making Whoopee - Chet Baker Quartet
TTITLE2=Stardust - Dave Brubeck Quartet
TTITLE3=In A Sentimental Mood - Duke Ellington and His Orchestra
TTITLE4=You're A Heavenly Thing - Mel Torme and His Trio
TTITLE5=Lover - Oscar Peterson
TTITLE6=So Easy - Dexter Gordon
TTITLE7=Groovin' High - Dizy Gillespe Sextet
TTITLE8=Parker's Mood - Charlie Parker All Stars
TTITLE9=Something Cool - June Christy
TTITLE10=The Way You Look Tonight - Art Pepper
TTITLE11=Early Autumn - Woody Herman and His Orchestra
TTITLE12=Bernie's Tune - Gerry Mulligen Quartet
TTITLE13=Pot Luck - Stan Getz
TTITLE14=Blue Moon - Billy Eckstine
TTITLE15=You And The Night And The Music - Stan Kenton and His Orchestra
TTITLE16=Evidence - Thelonious Monk Quartet
TTITLE17=Body And Soul - Coleman Hawkins and His Orchestra
TTITLE18=My Ideal - Billy Butterfield and His Orchestra
TTITLE19=Smooth Sailing - Ella Fitzgerald
EXTD=YEAR: 2006
EXTT0=
EXTT1=
EXTT2=
EXTT3=
EXTT4=
EXTT5=
EXTT6=
EXTT7=
EXTT8=
EXTT9=
EXTT10=
EXTT11=
EXTT12=
EXTT13=
EXTT14=
EXTT15=
EXTT16=
EXTT17=
EXTT18=
EXTT19=
PLAYORDER=
